:SAMPLES-PER-SECOND 30
:FRAME-RANGE 1-1086
:FULLY-SPECIFIED
:DEGREES
544
root  6.71958 38.1246 52.3535 7.79178 43.9715 -0.638214
RightUpLeg  -24.3968 1.50747 -1.3637
RightLeg  31.4407 -7.2945 -5.02698
RightFoot  -13.1905 0.0088112 6.09023
RightToes  -5.8209e-011 0 -3.6325e-017
Spine  14.8079 -0.195422 -1.19751
Spine1  1.81976 -2.11848 7.93554
HEad  -7.41705 8.44919 -2.71056
LeftShoulder1  2.14152 -5.78416 -16.3349
LeftArm  20.4974 -43.2407 -18.5419
LeftForeArm  -40.753 -27.1716 -7.58011
LeftHand  1.22867 -0.349372 -24.5996
RightShoulder  12.1773 27.4743 33.058
RightArm  -9.749 23.9367 11.1851
RightForeArm  -33.7865 56.8287 19.8358
RightHand  -0.542367 -8.63244 16.675
LeftUpLeg  -32.952 18.6348 0.385791
LeftLeg  17.4124 -2.03635 -0.526723
LeftFoot  7.3187 0.541217 -3.56556
LeftToes  5.72949e-011 5.22586e-011 2.45399e-011
545
root  7.60514 38.0596 52.3729 7.81836 43.5994 -0.428467
RightUpLeg  -23.6142 2.4434 -2.65493
RightLeg  32.2854 -7.64601 -5.41931
RightFoot  -14.1876 0.0885041 7.43215
RightToes  -5.8209e-011 0 -3.6325e-017
Spine  14.3857 -0.117449 -1.92479
Spine1  2.70383 -2.06952 7.35316
HEad  -7.83332 9.45628 -3.0751
LeftShoulder1  2.29046 -6.07028 -17.2777
LeftArm  22.8588 -42.3529 -21.394
LeftForeArm  -45.814 -27.1424 -7.70783
LeftHand  1.04998 0.558937 -25.157
RightShoulder  12.1805 26.5487 34.3007
RightArm  -8.12092 22.7411 11.3607
RightForeArm  -31.6821 56.9123 19.7986
RightHand  -0.356952 -7.46334 16.3743
LeftUpLeg  -33.1612 17.0118 0.172607
LeftLeg  20.6939 -0.567197 0.0944757
LeftFoot  5.11635 0.399064 -2.97469
LeftToes  5.72949e-011 5.22586e-011 2.45399e-011
546
root  8.39717 38.0465 52.3727 8.30185 42.9293 0.0727692
RightUpLeg  -23.551 2.47294 -3.98798
RightLeg  33.4113 -7.43763 -5.49661
RightFoot  -14.2748 0.139594 9.22443
RightToes  -5.8209e-011 0 -3.6325e-017
Spine  14.4248 -0.123809 -3.06749
Spine1  2.82296 -1.81801 6.07122
HEad  -8.14783 11.0527 -3.35944
LeftShoulder1  2.39392 -5.86936 -19.025
LeftArm  21.7844 -41.3857 -22.6593
LeftForeArm  -43.0263 -27.0267 -7.6073
LeftHand  1.07164 0.334813 -24.5048
RightShoulder  12.2983 25.8938 35.6049
RightArm  -7.07484 21.5303 11.7011
RightForeArm  -29.8045 56.5906 19.4557
RightHand  -0.196606 -6.43466 15.8417
LeftUpLeg  -33.1369 16.6042 -0.730764
LeftLeg  22.5521 0.30114 0.47416
LeftFoot  3.28817 0.24582 -2.07072
LeftToes  5.72949e-011 5.22586e-011 2.45399e-011
547
root  9.1237 38.0197 52.3679 8.79811 42.4497 0.374817
RightUpLeg  -24.7347 1.32751 -5.01463
RightLeg  36.2292 -6.69512 -5.49662
RightFoot  -13.2759 0.110687 11.873
RightToes  -5.8209e-011 0 -3.6325e-017
Spine  14.6907 -0.157983 -4.09406
Spine1  2.4257 -1.62819 4.92979
HEad  -8.64019 12.9347 -3.75673
LeftShoulder1  2.41918 -5.37468 -20.855
LeftArm  17.9531 -40.2842 -23.0979
LeftForeArm  -39.1418 -28.2156 -7.79579
LeftHand  1.07839 0.170649 -23.8668
RightShoulder  12.4065 25.2865 36.852
RightArm  -6.88414 20.3373 11.9732
RightForeArm  -28.4688 56.3857 19.2299
RightHand  -0.132753 -6.01506 15.4186
LeftUpLeg  -33.3094 16.2023 -1.52323
LeftLeg  24.2605 0.932607 0.803019
LeftFoot  1.34673 0.172046 -1.62117
LeftToes  5.72949e-011 5.22586e-011 2.45399e-011
548
root  9.78151 37.9917 52.3915 9.15747 42.1794 0.707687
RightUpLeg  -26.984 -1.06085 -5.69896
RightLeg  40.9663 -6.0419 -5.87103
RightFoot  -10.7185 -0.157236 15.3721
RightToes  -5.8209e-011 0 -3.6325e-017
Spine  15.1265 0.0256399 -5.47873
Spine1  2.11529 -1.40205 4.33894
HEad  -9.06131 14.7395 -4.14647
LeftShoulder1  2.40386 -5.0843 -21.6458
LeftArm  13.7836 -38.7676 -24.27
LeftForeArm  -34.3104 -29.9843 -8.09877
LeftHand  1.0643 0.0182598 -22.8838
RightShoulder  12.3313 24.5291 37.7424
RightArm  -7.12142 19.2044 11.944
RightForeArm  -27.639 56.3361 19.1472
RightHand  -0.0726767 -5.59065 15.4348
LeftUpLeg  -33.1547 14.8411 -1.91202
LeftLeg  25.741 2.13934 1.47382
LeftFoot  -0.595986 0.187311 -1.95398
LeftToes  5.72949e-011 5.22586e-011 2.45399e-011
549
root  10.416 38.0001 52.4005 9.2803 41.82 0.809036
RightUpLeg  -30.322 -3.58547 -5.79058
RightLeg  46.8429 -6.40138 -7.57569
RightFoot  -5.65473 -0.862032 16.4709
RightToes  -5.8209e-011 0 -3.6325e-017
Spine  15.4933 0.260266 -6.09123
Spine1  1.83969 -0.965525 3.38065
HEad  -9.25907 16.4918 -4.72453
LeftShoulder1  2.39486 -4.94094 -22.037
LeftArm  10.9861 -37.2591 -25.462
LeftForeArm  -30.348 -32.0798 -8.52308
LeftHand  1.07144 -0.142678 -22.3504
RightShoulder  12.1674 23.7768 38.3536
RightArm  -7.4749 17.9213 11.8722
RightForeArm  -27.0313 56.3779 19.1443
RightHand  -0.0207889 -5.22406 15.3163
LeftUpLeg  -32.738 13.5957 -2.19619
LeftLeg  26.7339 3.37103 2.19983
LeftFoot  -2.15848 0.165709 -1.90196
LeftToes  5.72949e-011 5.22586e-011 2.45399e-011
550
root  11.0267 38.0624 52.4509 9.12469 41.7479 0.592438
RightUpLeg  -34.258 -5.7527 -4.86527
RightLeg  52.7199 -7.58429 -10.9175
RightFoot  1.15137 -0.991522 9.11249
RightToes  -5.8209e-011 0 -3.6325e-017
Spine  15.6621 0.363306 -6.238
Spine1  1.73238 -0.669324 2.59072
HEad  -9.38624 18.6737 -5.70809
LeftShoulder1  2.36597 -4.73558 -22.414
LeftArm  8.67599 -35.6858 -26.2084
LeftForeArm  -27.1428 -34.4563 -9.07614
LeftHand  1.00064 0.0246762 -21.576
RightShoulder  12.0289 23.0608 39.0259
RightArm  -7.56646 16.6659 11.7165
RightForeArm  -26.1788 56.7251 19.3571
RightHand  0.0184556 -4.95165 15.6381
LeftUpLeg  -31.9963 12.6605 -2.29174
LeftLeg  27.1535 4.08921 2.6327
LeftFoot  -3.50031 0.141505 -1.7577
LeftToes  5.72949e-011 5.22586e-011 2.45399e-011
551
root  11.5967 38.0522 52.5954 9.0437 42.1338 0.586685
RightUpLeg  -37.5304 -7.51152 -3.9067
RightLeg  57.3683 -7.91558 -13.4903
RightFoot  3.10677 -0.842587 6.80706
RightToes  -5.8209e-011 0 -3.6325e-017
Spine  15.7156 0.397234 -6.91976
Spine1  1.70145 -0.58022 2.25635
HEad  -9.6285 20.7199 -6.37882
LeftShoulder1  2.32237 -4.47498 -22.8271
LeftArm  6.51835 -33.8016 -26.5511
LeftForeArm  -24.1463 -37.2412 -9.80148
LeftHand  0.927613 0.266204 -21.008
RightShoulder  11.8287 22.2521 39.6617
RightArm  -7.55642 15.4957 11.6212
RightForeArm  -25.5153 57.3424 19.7968
RightHand  0.0566041 -4.6993 16.0151
LeftUpLeg  -31.4838 12.0826 -2.55045
LeftLeg  28.1249 4.07326 2.71967
LeftFoot  -5.10758 0.12095 -1.65735
LeftToes  5.72949e-011 5.22586e-011 2.45399e-011
552
root  12.1816 38.0638 52.7908 8.895 42.8289 0.599792
RightUpLeg  -40.0846 -8.63113 -2.94014
RightLeg  59.7306 -6.56997 -12.4553
RightFoot  0.606503 -0.712961 6.84429
RightToes  -5.8209e-011 0 -3.6325e-017
Spine  15.9534 0.357516 -7.1958
Spine1  1.35467 -0.503037 1.74169
HEad  -9.77074 22.3533 -6.8934
LeftShoulder1  2.26616 -4.18989 -23.1931
LeftArm  5.59665 -31.8955 -26.8276
LeftForeArm  -21.7568 -39.8046 -10.5413
LeftHand  0.873206 0.500434 -20.7822
RightShoulder  11.5162 21.2616 40.2315
RightArm  -7.38389 13.9822 11.7388
RightForeArm  -24.3217 58.3864 20.5773
RightHand  0.0938127 -4.45299 16.1599
LeftUpLeg  -30.7047 11.2583 -2.74052
LeftLeg  28.8615 4.05063 2.77968
LeftFoot  -6.52962 0.105977 -1.58859
LeftToes  5.72949e-011 5.22586e-011 2.45399e-011
553
root  12.7556 38.0779 53.0375 8.70006 43.66 0.482758
RightUpLeg  -42.141 -9.24837 -1.70949
RightLeg  59.7481 -6.02763 -11.5061
RightFoot  -1.17716 -0.782454 8.69144
RightToes  -5.8209e-011 0 -3.6325e-017
Spine  16.0516 0.343937 -7.3679
Spine1  1.03343 -0.405818 1.44083
HEad  -10.0634 23.7173 -7.68515
LeftShoulder1  2.24665 -3.97851 -23.794
LeftArm  4.5669 -29.7527 -26.8723
LeftForeArm  -20.005 -42.372 -11.3808
LeftHand  0.818024 0.715619 -20.4281
RightShoulder  11.1906 20.2646 40.8031
RightArm  -6.85751 12.3925 11.6672
RightForeArm  -22.8365 59.6342 21.5811
RightHand  0.116903 -4.30899 16.3647
LeftUpLeg  -29.885 10.4701 -2.78592
LeftLeg  29.5173 3.89798 2.75271
LeftFoot  -8.02433 0.096097 -1.6547
LeftToes  5.72949e-011 5.22586e-011 2.45399e-011
554
root  13.3462 38.1175 53.3045 8.36101 44.609 0.166092
RightUpLeg  -43.6085 -9.57863 -0.293406
RightLeg  57.2609 -5.79234 -10.0462
RightFoot  -2.15216 -0.761956 9.27872
RightToes  -5.8209e-011 0 -3.6325e-017
Spine  16.0417 0.281448 -7.05746
Spine1  0.914806 -0.319963 1.13531
HEad  -10.5311 24.7271 -8.45896
LeftShoulder1  2.2331 -3.77064 -24.4982
LeftArm  3.69744 -27.5483 -26.7216
LeftForeArm  -18.0923 -44.8947 -12.2758
LeftHand  0.750622 1.05578 -20.3155
RightShoulder  10.8138 19.2622 41.2172
RightArm  -6.22026 10.8619 11.6446
RightForeArm  -21.6056 60.8521 22.6661
RightHand  0.140638 -4.15293 16.4008
LeftUpLeg  -28.8929 9.68841 -2.67459
LeftLeg  29.9119 3.73018 2.68649
LeftFoot  -9.4021 0.0826201 -1.54698
LeftToes  5.72949e-011 5.22586e-011 2.45399e-011
555
root  13.9207 38.1696 53.6058 7.9344 45.8204 -0.158417
RightUpLeg  -44.1644 -9.54849 0.922035
RightLeg  52.2226 -5.6803 -8.17621
RightFoot  -2.50643 -0.805882 10.1844
RightToes  -5.8209e-011 0 -3.6325e-017
Spine  16.0245 0.23655 -6.60374
Spine1  0.842657 -0.264658 0.971737
HEad  -10.6223 25.3873 -9.11746
LeftShoulder1  2.21 -3.52808 -25.2607
LeftArm  3.75085 -25.699 -26.2943
LeftForeArm  -16.8558 -46.9952 -13.1134
LeftHand  0.67944 1.39906 -20.092
RightShoulder  10.4429 18.3041 41.5978
RightArm  -5.73262 9.35931 11.704
RightForeArm  -20.3282 61.8312 23.5927
RightHand  0.158083 -4.04619 16.5298
LeftUpLeg  -27.7051 9.0136 -2.53223
LeftLeg  30.0285 3.33862 2.45191
LeftFoot  -10.5612 0.0729726 -1.40918
LeftToes  5.72949e-011 5.22586e-011 2.45399e-011
